# xmcd
#
# Track frame offsets:
#	180
#	17298
#	38479
#	53631
#	69199
#	87965
#	104318
#	114242
#	144620
#	157088
#
# Disc length: 2380 seconds
#
# Revision: 5
# Processed by: cddbd v1.5.2PL0 Copyright (c) Steve Scherf et al.
# Submitted via: audiograbber 1.83.01
#
DISCID=70094a0a
DTITLE=Various Artist - New Country - Volume 3 - Number 10
DYEAR=1996
DGENRE=Country
TTITLE0=Geno Delafose - Geno's Two Step
TTITLE1=The Bellamy Brothers - Shine Them Buckles
TTITLE2=Marty Brown - Too Lonely Too Long
TTITLE3=Sweethearts Of The Rodeo - I Won't Cry
TTITLE4=Joe Nichols - Leave The Past Behind
TTITLE5=Waylon Jennings - Deep In The West
TTITLE6=New Coon Creek Girls - Palms Of Victory
TTITLE7=Michelle Shocked - Prodigal Daughter (Cotton Eyed Joe)
TTITLE8=Del McCoury - The Cold Hard Facts
TTITLE9=Rees Shad - Hero's Son
EXTD=
EXTT0=
EXTT1=
EXTT2=
EXTT3=
EXTT4=
EXTT5=
EXTT6=
EXTT7=
EXTT8=
EXTT9=
PLAYORDER=
